<svg width="32" height="34" viewBox="0 0 32 34" fill="none" xmlns="http://www.w3.org/2000/svg">
<path d="M4.15856 2.31703L1.73804 6.49793C0.966113 7.83126 1.92823 9.5 3.4689 9.5H9.85026C11.6061 9.5 12.5098 7.39919 11.3022 6.12451L7.34132 1.94361C6.42213 0.97336 4.82821 1.16036 4.15856 2.31703Z" fill="#012FA6"/>
<path d="M29.683 16.6586L25.5021 14.238C24.1687 13.4661 22.5 14.4282 22.5 15.9689L22.5 22.3503C22.5 24.1061 24.6008 25.0098 25.8755 23.8022L30.0564 19.8413C31.0266 18.9221 30.8396 17.3282 29.683 16.6586Z" fill="#012FA6"/>
<path d="M3.402 16.146V19.818H7.722V21.492H3.402V25.326H8.262V27H1.35V14.472H8.262V16.146H3.402ZM12.8415 25.344H17.0715V27H10.7895V14.49H12.8415V25.344Z" fill="white"/>
</svg>
